<svg width="52" height="52" xmlns="http://www.w3.org/2000/svg" xmlns:xlink="http://www.w3.org/1999/xlink" xml:space="preserve" overflow="hidden"><g transform="translate(-108 -326)"><g><g><g><g><path d="M153.625 339.75 143.301 339.75 140.113 334.438 128.887 334.438 125.699 339.75 115.375 339.75C113.909 339.752 112.721 340.94 112.719 342.406L112.719 367.906C112.721 369.373 113.909 370.561 115.375 370.562L153.625 370.562C155.091 370.561 156.279 369.373 156.281 367.906L156.281 342.406C156.279 340.94 155.091 339.752 153.625 339.75ZM129.488 335.5 139.512 335.5 142.062 339.75 126.938 339.75ZM153.625 340.812C154.505 340.812 155.219 341.526 155.219 342.406L155.219 367.906C155.219 368.786 154.505 369.5 153.625 369.5L115.375 369.5C114.495 369.5 113.781 368.786 113.781 367.906L113.781 342.406C113.781 341.526 114.495 340.812 115.375 340.812Z" fill="#000000" fill-rule="nonzero" fill-opacity="1"/><path d="M116.969 348.781 123.875 348.781 123.875 344 116.969 344ZM118.031 345.062 122.812 345.062 122.812 347.719 118.031 347.719Z" fill="#000000" fill-rule="nonzero" fill-opacity="1"/><path d="M134.5 346.656C129.219 346.656 124.938 350.938 124.938 356.219 124.938 361.5 129.219 365.781 134.5 365.781 139.781 365.781 144.062 361.5 144.062 356.219 144.056 350.94 139.779 346.662 134.5 346.656ZM134.5 364.719C129.806 364.719 126 360.913 126 356.219 126 351.524 129.806 347.719 134.5 347.719 139.194 347.719 143 351.524 143 356.219 142.994 360.911 139.192 364.713 134.5 364.719Z" fill="#000000" fill-rule="nonzero" fill-opacity="1"/><path d="M134.5 349.844C130.979 349.844 128.125 352.698 128.125 356.219 128.125 359.74 130.979 362.594 134.5 362.594 138.021 362.594 140.875 359.74 140.875 356.219 140.871 352.7 138.019 349.848 134.5 349.844ZM134.5 361.531C131.566 361.531 129.188 359.153 129.188 356.219 129.188 353.285 131.566 350.906 134.5 350.906 137.434 350.906 139.812 353.285 139.812 356.219 139.809 359.151 137.433 361.528 134.5 361.531Z" fill="#000000" fill-rule="nonzero" fill-opacity="1"/></g></g></g></g></g></svg>