<svg width="228" height="230" xmlns="http://www.w3.org/2000/svg" xmlns:xlink="http://www.w3.org/1999/xlink" xml:space="preserve" overflow="hidden"><g transform="translate(-32 -330)"><g><g><g><g><path d="M199.5 57 153.344 57 139.094 33.25 88.9057 33.25 74.6557 57 28.5 57C21.9449 57.0078 16.6329 62.3198 16.625 68.875L16.625 182.875C16.6329 189.43 21.9449 194.742 28.5 194.75L199.5 194.75C206.055 194.742 211.367 189.43 211.375 182.875L211.375 68.875C211.367 62.3198 206.055 57.0078 199.5 57ZM91.5943 38 136.406 38 147.806 57 80.1942 57ZM199.5 61.75C203.435 61.75 206.625 64.9399 206.625 68.875L206.625 182.875C206.625 186.81 203.435 190 199.5 190L28.5 190C24.5649 190 21.375 186.81 21.375 182.875L21.375 68.875C21.375 64.9399 24.5649 61.75 28.5 61.75Z" fill="#AAAAAA" fill-rule="nonzero" fill-opacity="1" transform="matrix(1 0 0 1.00439 32 331)"/><path d="M35.625 97.375 66.5 97.375 66.5 76 35.625 76ZM40.375 80.75 61.75 80.75 61.75 92.625 40.375 92.625Z" fill="#AAAAAA" fill-rule="nonzero" fill-opacity="1" transform="matrix(1 0 0 1.00439 32 331)"/><path d="M114 87.875C90.3899 87.875 71.25 107.015 71.25 130.625 71.25 154.235 90.3899 173.375 114 173.375 137.61 173.375 156.75 154.235 156.75 130.625 156.722 107.026 137.599 87.9025 114 87.875ZM114 168.625C93.0131 168.625 76 151.612 76 130.625 76 109.638 93.0131 92.625 114 92.625 134.987 92.625 152 109.638 152 130.625 151.975 151.601 134.976 168.6 114 168.625Z" fill="#AAAAAA" fill-rule="nonzero" fill-opacity="1" transform="matrix(1 0 0 1.00439 32 331)"/><path d="M114 102.125C98.2599 102.125 85.5 114.885 85.5 130.625 85.5 146.365 98.2599 159.125 114 159.125 129.74 159.125 142.5 146.365 142.5 130.625 142.483 114.892 129.733 102.142 114 102.125ZM114 154.375C100.883 154.375 90.25 143.742 90.25 130.625 90.25 117.508 100.883 106.875 114 106.875 127.117 106.875 137.75 117.508 137.75 130.625 137.736 143.736 127.111 154.361 114 154.375Z" fill="#AAAAAA" fill-rule="nonzero" fill-opacity="1" transform="matrix(1 0 0 1.00439 32 331)"/></g></g></g></g></g></svg>